# xmcd
#
# Track frame offsets:
# 150
# 17477
# 32156
# 144284
# 161666
# 175449
#
# Disc length: 3789 seconds
#
#
# Revision: 0
# Processed by: cddbd v1.5.2PL0 Copyright (c) Steve Scherf et al.
# Submitted via: FreeRIP 2.951 
#
DISCID=450ecb06
DTITLE=Tomaseen Foley - The Priest and the Acrobat
DYEAR=1999
DGENRE=Folklore
TTITLE0=The Rose in the Heather/Green Mountain
TTITLE1=Lark in the Morning
TTITLE2=The Wake
TTITLE3=Templehouse Reel/Da Full Rigged Ship
TTITLE4=The Ships are Sailing
TTITLE5=The Priest and the Acrobat
EXTD=
EXTT0=
EXTT1=
EXTT2=
EXTT3=
EXTT4=
EXTT5=
PLAYORDER=
